<svg xmlns="http://www.w3.org/2000/svg" xmlns:xlink="http://www.w3.org/1999/xlink" viewBox="445.5 -3486.5 549.871 537.971">
  <defs>
    <style>
      .cls-1 {
        filter: url(#Union_180);
      }
    </style>
    <filter id="Union_180" x="445.5" y="-3486.5" width="549.871" height="537.971" filterUnits="userSpaceOnUse">
      <feOffset input="SourceAlpha"/>
      <feGaussianBlur stdDeviation="49.5" result="blur"/>
      <feFlood flood-color="#fff" flood-opacity="0.796"/>
      <feComposite operator="in" in2="blur"/>
      <feComposite in="SourceGraphic"/>
    </filter>
  </defs>
  <g class="cls-1" transform="matrix(1, 0, 0, 1, 0, 0)">
    <path id="Union_180-2" data-name="Union 180" d="M204.846-486.029l-78.2-32.725-78.2,32.725h-.213l5.1-62.05L71.824-550.2h.213l-2.975,35.7,57.374-24.225.213.213v-.213L184.234-514.5l-2.974-35.7,18.7,2.124,5.1,62.05Zm6.587-66.937c-1.7-9.35-3.4-18.7-5.312-28.049h-2.974c-1.275,0-2.338-.213-3.613-.213-1.063,8.713-2.125,17.637-2.974,26.775-4.888-.426-7.225-.638-12.113-1.062l5.737-65.874c7.65.636,11.263.849,18.913,1.7,7.437.85,12.962,2.976,16.361,6.375s4.463,8.713,3.4,15.513a36.677,36.677,0,0,1-1.7,6.587,17.841,17.841,0,0,1-2.762,4.463,10.282,10.282,0,0,1-3.4,2.762c-1.275.638-2.338,1.063-3.4,1.488,2.124,10.2,4.249,20.612,6.162,31.024C218.87-552.115,216.321-552.541,211.433-552.966ZM200.384-590.79c1.913.213,2.763.213,4.462.425a15.649,15.649,0,0,0,4.463,0,7.193,7.193,0,0,0,3.187-1.276,8.248,8.248,0,0,0,2.125-2.974,13.936,13.936,0,0,0,1.063-4.888c.425-3.824.213-6.587-1.275-8.286-1.275-1.487-3.824-2.55-7.225-2.975-1.913-.213-2.763-.213-4.674-.425C201.659-602.9,201.234-598.865,200.384-590.79ZM35.274-556.366c-3.612-3.186-6.162-8.5-6.587-14.45v-.213H28.9c4.462-.636,6.8-1.061,11.262-1.487h.213v.213a20.345,20.345,0,0,0,2.338,7.649c1.063,1.7,2.763,2.337,5.1,2.125s3.826-1.276,4.463-3.187a20.317,20.317,0,0,0,.638-5.95,15.867,15.867,0,0,0-.638-4.25A14.1,14.1,0,0,0,44.2-584.2c-.85-.426-1.7-.637-2.763-1.063-3.4-1.274-7.012-2.549-9.774-4.675-3.4-2.55-5.313-5.1-6.163-8.5v-.213c0-.637-.213-1.063-.213-1.488-.849-6.375,0-11.262,2.763-14.661a12.854,12.854,0,0,1,1.7-1.7,15.8,15.8,0,0,1,4.462-2.763h.213a.208.208,0,0,1,.213-.212,1.607,1.607,0,0,1,.85-.425c.213,0,.425-.213.638-.213s.638-.212.85-.212c.425,0,.638-.213,1.063-.213h.638c.638,0,1.274-.213,1.912-.213,5.526-.636,10.2.426,13.812,3.188,2.975,2.125,5.738,5.312,6.163,12.75v.213h-.213c-4.676.637-7.012,1.063-11.688,1.7h-.213v-.213c-.425-3.4-1.063-5.524-2.124-6.8-.85-1.274-2.55-1.7-4.463-1.487a4.637,4.637,0,0,0-4.037,2.551c-.638,1.488-.85,3.824-.425,7.012v.425c0,.212.213.426.213.638l.638,1.274v.213c1.487,2.339,4.674,3.613,7.65,4.676a25.04,25.04,0,0,1,2.337,1.063,38.112,38.112,0,0,1,8.5,4.886,15.94,15.94,0,0,1,4.674,5.312,26.378,26.378,0,0,1,2.763,9.988c.425,6.163-.425,11.049-2.763,14.237-2.549,3.4-6.587,5.525-12.537,6.162a13.971,13.971,0,0,1-2.974.213A16.071,16.071,0,0,1,35.274-556.366Zm36.975-2.974c-3.613-2.763-5.525-7.012-6.162-12.75-1.488-16.363-2.975-32.725-4.251-49.088,5.313-.424,8.075-.636,13.387-.849L78.411-572.3c.213,4.887,2.763,7.012,7.012,6.8,4.462-.212,6.587-2.763,6.375-7.438-.638-16.575-1.488-33.15-2.125-49.723,5.313-.212,8.075-.212,13.6-.426.425,16.362.849,32.937,1.274,49.3.213,5.737-1.487,10.2-4.674,13.174s-7.65,4.675-13.6,4.887q-.707.027-1.393.026C79.774-555.7,75.564-556.806,72.249-559.34Zm75.648,1.912c.638-21.887,1.488-43.987,2.125-65.874,12.112.426,24.012,1.063,36.124,1.913-.425,4.037-.425,5.949-.85,9.774-8.925-.637-13.387-.85-22.312-1.275-.425,6.8-.425,10.2-.85,17,6.8.212,9.988.425,16.788.85-.213,4.037-.425,5.95-.85,9.774-6.587-.424-9.987-.636-16.575-.849-.425,7.65-.638,11.686-1.061,19.336,8.924.426,13.387.637,22.1,1.276-.424,4.037-.424,5.95-.849,9.774C170.634-556.366,159.16-557,147.9-557.428ZM105.185-623.3c7.65-.211,11.688-.211,19.338-.211,8.286,0,14.45,1.487,18.274,4.673,3.826,2.976,5.737,8.076,5.312,15.088a25.652,25.652,0,0,1-1.7,8.925,15.719,15.719,0,0,1-4.463,5.95,18.734,18.734,0,0,1-7.225,3.188,48.6,48.6,0,0,1-10.2,1.062H119c.213,8.925.213,18.063.213,26.988-4.674,0-7.012,0-11.9.212C106.673-579.315,106.035-601.414,105.185-623.3ZM119-593.977h5.1a35.779,35.779,0,0,0,5.312-.425,5.77,5.77,0,0,0,3.4-1.7,8,8,0,0,0,1.913-3.188,16.033,16.033,0,0,0,.638-4.887,29.828,29.828,0,0,0-.425-4.887,6.164,6.164,0,0,0-1.913-3.188,8.166,8.166,0,0,0-3.612-1.7,20.807,20.807,0,0,0-5.525-.424h-5.1C119-606.3,119-602.265,119-593.977Zm111.561-23.375-2.125-2.125a17.576,17.576,0,0,0-5.737-3.612h-.213c-.213,0-.213-.213-.425-.213-.425-.211-.85-.211-1.275-.425-.213,0-.638-.212-.85-.212-.213-.213-.213-.213-.425-.213l-60.773-14.236-32.3-53.338-32.3,53.338L33.361-624.152c-.213.213-.213.213-.425.213s-.638.212-.849.212c-.425.213-.85.213-1.275.425-.213,0-.213.213-.425.213h-.213a20.12,20.12,0,0,0-5.737,3.612,10.044,10.044,0,0,0-2.125,2.125,19.553,19.553,0,0,0-2.763,5.1L0-634.989l73.524-17.424,8.924-2.125L126.647-727l43.987,72.462,8.925,2.125,73.311,17.424L233.32-612.252A14.831,14.831,0,0,0,230.559-617.352Z" transform="translate(594 -2611)"/>
  </g>
</svg>
