<svg xmlns="http://www.w3.org/2000/svg" viewBox="-816.828 -545.307 268.656 256.014">
  <path id="Union_1" data-name="Union 1" d="M217.633-470.986l-83.08-34.768-83.08,34.768h-.226l5.419-65.923,19.641-2.257h.226l-3.161,37.928,60.955-25.737.226.226v-.226l61.181,25.737-3.16-37.928,19.866,2.257,5.418,65.923Zm7-71.115c-1.805-9.934-3.612-19.866-5.644-29.8h-3.16c-1.355,0-2.484-.226-3.839-.226-1.129,9.256-2.258,18.737-3.16,28.446-5.193-.452-7.676-.677-12.869-1.129l6.1-69.985c8.127.676,11.966.9,20.094,1.805,7.9.9,13.771,3.161,17.383,6.773s4.742,9.257,3.613,16.481a38.987,38.987,0,0,1-1.806,7A18.968,18.968,0,0,1,238.4-578a10.93,10.93,0,0,1-3.613,2.934c-1.355.677-2.484,1.129-3.611,1.581,2.257,10.837,4.515,21.9,6.547,32.962C232.533-541.2,229.825-541.65,224.632-542.1Zm-11.739-40.186c2.032.226,2.935.226,4.74.452a16.6,16.6,0,0,0,4.742,0,7.642,7.642,0,0,0,3.386-1.355,8.759,8.759,0,0,0,2.258-3.16,14.809,14.809,0,0,0,1.129-5.193c.452-4.063.226-7-1.355-8.8-1.355-1.581-4.063-2.71-7.676-3.161-2.032-.226-2.935-.226-4.966-.452C214.247-595.155,213.8-590.866,212.893-582.287ZM37.476-545.714c-3.837-3.386-6.547-9.029-7-15.352v-.226H30.7c4.74-.676,7.224-1.128,11.965-1.579h.226v.226a21.623,21.623,0,0,0,2.484,8.127c1.129,1.805,2.935,2.483,5.418,2.257s4.064-1.355,4.742-3.386a21.58,21.58,0,0,0,.677-6.321,16.865,16.865,0,0,0-.677-4.516,14.989,14.989,0,0,0-8.579-8.8c-.9-.452-1.806-.677-2.935-1.129-3.612-1.354-7.45-2.708-10.384-4.966-3.613-2.71-5.645-5.418-6.548-9.031v-.226c0-.677-.226-1.129-.226-1.581-.9-6.773,0-11.965,2.935-15.576a13.631,13.631,0,0,1,1.806-1.806,16.778,16.778,0,0,1,4.74-2.935h.226a.221.221,0,0,1,.226-.226,1.711,1.711,0,0,1,.9-.452c.226,0,.452-.226.677-.226s.677-.226.9-.226c.452,0,.677-.226,1.129-.226h.677c.677,0,1.354-.226,2.031-.226,5.871-.676,10.837.452,14.674,3.387,3.161,2.258,6.1,5.644,6.548,13.545v.226h-.226c-4.968.677-7.45,1.129-12.418,1.806h-.226v-.226c-.452-3.613-1.129-5.869-2.257-7.224-.9-1.355-2.71-1.806-4.742-1.581a4.925,4.925,0,0,0-4.289,2.71c-.677,1.581-.9,4.063-.452,7.45v.452c0,.226.226.452.226.677l.677,1.353v.226c1.579,2.484,4.966,3.839,8.127,4.968a26.574,26.574,0,0,1,2.483,1.129,40.5,40.5,0,0,1,9.031,5.192,16.934,16.934,0,0,1,4.966,5.644,28.023,28.023,0,0,1,2.935,10.611c.452,6.547-.452,11.739-2.935,15.126-2.708,3.611-7,5.87-13.32,6.547a14.9,14.9,0,0,1-3.16.226A17.074,17.074,0,0,1,37.476-545.714Zm39.283-3.16c-3.839-2.935-5.869-7.45-6.547-13.545-1.581-17.384-3.161-34.768-4.516-52.152,5.645-.45,8.579-.676,14.223-.9l3.387,52.828c.226,5.192,2.935,7.45,7.45,7.224,4.74-.226,7-2.935,6.773-7.9-.677-17.61-1.581-35.219-2.258-52.828,5.645-.226,8.579-.226,14.45-.452.452,17.383.9,34.992,1.354,52.376.226,6.1-1.579,10.836-4.966,14s-8.127,4.966-14.449,5.192q-.751.028-1.48.028C84.754-545.009,80.281-546.181,76.759-548.874Zm80.37,2.032c.677-23.254,1.581-46.733,2.258-69.986,12.868.452,25.511,1.129,38.379,2.032-.452,4.289-.452,6.321-.9,10.384-9.482-.677-14.223-.9-23.705-1.355-.452,7.224-.452,10.837-.9,18.061,7.224.226,10.611.452,17.836.9-.226,4.289-.452,6.321-.9,10.384-7-.45-10.61-.676-17.61-.9-.452,8.127-.677,12.416-1.128,20.544,9.481.452,14.223.677,23.478,1.355-.45,4.289-.45,6.321-.9,10.384C181.286-545.714,169.1-546.391,157.129-546.842Zm-45.378-69.986c8.127-.226,12.418-.226,20.545-.226,8.8,0,15.352,1.58,19.415,4.966,4.064,3.161,6.1,8.579,5.644,16.029-.226,3.839-.677,7-1.805,9.482a16.7,16.7,0,0,1-4.742,6.321,19.89,19.89,0,0,1-7.676,3.387A51.623,51.623,0,0,1,132.3-575.74h-5.871c.226,9.482.226,19.19.226,28.673-4.966,0-7.45,0-12.642.226C113.332-570.1,112.654-593.575,111.751-616.828Zm14.674,31.155h5.419a38.074,38.074,0,0,0,5.644-.452,6.129,6.129,0,0,0,3.611-1.806,8.5,8.5,0,0,0,2.032-3.387,17.033,17.033,0,0,0,.677-5.192,31.691,31.691,0,0,0-.452-5.192,6.547,6.547,0,0,0-2.032-3.387,8.68,8.68,0,0,0-3.837-1.806,22.129,22.129,0,0,0-5.869-.45H126.2C126.426-598.768,126.426-594.478,126.426-585.673Zm118.525-24.834-2.258-2.258a18.678,18.678,0,0,0-6.1-3.837h-.226c-.226,0-.226-.226-.452-.226-.452-.226-.9-.226-1.355-.452-.226,0-.677-.226-.9-.226-.226-.226-.226-.226-.452-.226l-64.567-15.126-34.316-56.667-34.315,56.667L35.444-617.731c-.226.226-.226.226-.452.226s-.677.226-.9.226c-.452.226-.9.226-1.355.452-.226,0-.226.226-.452.226h-.226a21.383,21.383,0,0,0-6.1,3.837,10.7,10.7,0,0,0-2.258,2.258,20.778,20.778,0,0,0-2.935,5.418L0-629.246l78.114-18.512,9.481-2.258L134.553-727l46.733,76.985,9.482,2.258,77.888,18.512-20.771,24.157A15.759,15.759,0,0,0,244.951-610.507Z" transform="translate(-816.828 181.693)"/>
</svg>
