<svg xmlns="http://www.w3.org/2000/svg" viewBox="-1792.922 -2159.066 51.81 49.372">
  <path id="Union_173" data-name="Union 173" d="M41.971-677.628l-16.022-6.7-16.022,6.7H9.883l1.045-12.713,3.788-.435h.044l-.61,7.314,11.755-4.964.044.044v-.044l11.8,4.964-.609-7.314,3.831.435,1.045,12.713Zm1.35-13.715c-.348-1.916-.7-3.831-1.088-5.747h-.609c-.261,0-.479-.044-.74-.044-.218,1.785-.435,3.614-.609,5.486l-2.482-.218,1.175-13.5c1.567.13,2.308.174,3.875.348a5.554,5.554,0,0,1,3.352,1.306,3.544,3.544,0,0,1,.7,3.178,7.515,7.515,0,0,1-.348,1.35,3.656,3.656,0,0,1-.566.914,2.107,2.107,0,0,1-.7.566c-.261.131-.479.218-.7.3.435,2.09.871,4.223,1.263,6.357C44.844-691.168,44.322-691.255,43.32-691.343Zm-2.264-7.75c.392.044.566.044.914.087a3.207,3.207,0,0,0,.914,0,1.474,1.474,0,0,0,.653-.261,1.69,1.69,0,0,0,.435-.609,2.855,2.855,0,0,0,.218-1,2.2,2.2,0,0,0-.261-1.7,2.347,2.347,0,0,0-1.48-.609c-.392-.044-.566-.044-.958-.087C41.318-701.574,41.231-700.747,41.056-699.092ZM7.227-692.039A4.4,4.4,0,0,1,5.878-695v-.044h.044c.914-.13,1.393-.217,2.307-.3h.044v.044a4.169,4.169,0,0,0,.479,1.567A1.009,1.009,0,0,0,9.8-693.3a.956.956,0,0,0,.914-.653,4.163,4.163,0,0,0,.131-1.219,3.251,3.251,0,0,0-.131-.871,2.89,2.89,0,0,0-1.654-1.7c-.174-.087-.348-.131-.566-.218a7.728,7.728,0,0,1-2-.958,3.026,3.026,0,0,1-1.263-1.742v-.044c0-.131-.044-.218-.044-.3a3.821,3.821,0,0,1,.566-3,2.635,2.635,0,0,1,.348-.348,3.237,3.237,0,0,1,.914-.566h.044a.043.043,0,0,1,.044-.043.329.329,0,0,1,.174-.087c.044,0,.087-.044.131-.044s.131-.043.174-.043c.087,0,.131-.044.218-.044h.131c.131,0,.261-.044.392-.044a3.8,3.8,0,0,1,2.83.653,3.05,3.05,0,0,1,1.263,2.612v.044h-.044c-.958.13-1.437.218-2.395.348H9.927v-.044a2.74,2.74,0,0,0-.435-1.393.927.927,0,0,0-.914-.3.95.95,0,0,0-.827.523,2.856,2.856,0,0,0-.087,1.437v.087c0,.043.044.087.044.131l.131.261v.044a3.008,3.008,0,0,0,1.567.958,5.131,5.131,0,0,1,.479.218,7.808,7.808,0,0,1,1.742,1,3.266,3.266,0,0,1,.958,1.088,5.4,5.4,0,0,1,.566,2.046,4.443,4.443,0,0,1-.566,2.917,3.473,3.473,0,0,1-2.569,1.263,2.864,2.864,0,0,1-.609.044A3.293,3.293,0,0,1,7.227-692.039Zm7.576-.609a3.583,3.583,0,0,1-1.263-2.612c-.3-3.353-.61-6.7-.871-10.057,1.089-.087,1.654-.13,2.743-.174l.653,10.188c.044,1,.566,1.437,1.437,1.393.914-.043,1.35-.566,1.306-1.524-.131-3.4-.3-6.792-.435-10.188,1.089-.043,1.654-.043,2.787-.087.087,3.352.174,6.748.261,10.1a3.373,3.373,0,0,1-.958,2.7,4.142,4.142,0,0,1-2.786,1q-.145.005-.285.005A4.125,4.125,0,0,1,14.8-692.649Zm15.5.392c.131-4.484.3-9.012.435-13.5,2.482.087,4.92.218,7.4.392-.087.827-.087,1.219-.174,2-1.829-.131-2.743-.174-4.572-.261-.087,1.393-.087,2.09-.174,3.483,1.393.043,2.046.087,3.44.174-.044.827-.087,1.219-.174,2-1.35-.087-2.046-.13-3.4-.174-.087,1.567-.131,2.394-.217,3.962,1.828.087,2.743.131,4.528.261-.087.827-.087,1.219-.174,2C34.961-692.039,32.61-692.17,30.3-692.257Zm-8.751-13.5c1.567-.043,2.395-.043,3.962-.043a5.849,5.849,0,0,1,3.744.958,3.436,3.436,0,0,1,1.088,3.091A5.256,5.256,0,0,1,30-699.92a3.22,3.22,0,0,1-.914,1.219,3.838,3.838,0,0,1-1.48.653,9.957,9.957,0,0,1-2.09.218H24.381c.044,1.829.044,3.7.044,5.53-.958,0-1.437,0-2.438.043C21.856-696.741,21.725-701.269,21.551-705.754Zm2.83,6.008h1.045a7.336,7.336,0,0,0,1.088-.087,1.182,1.182,0,0,0,.7-.348,1.638,1.638,0,0,0,.392-.653,3.285,3.285,0,0,0,.131-1,6.111,6.111,0,0,0-.087-1,1.263,1.263,0,0,0-.392-.653,1.673,1.673,0,0,0-.74-.348,4.264,4.264,0,0,0-1.132-.087H24.338C24.381-702.271,24.381-701.443,24.381-699.745Zm22.858-4.789-.435-.435a3.6,3.6,0,0,0-1.175-.74h-.044c-.044,0-.044-.044-.087-.044-.087-.043-.174-.043-.261-.087-.044,0-.131-.043-.174-.043-.044-.044-.044-.044-.087-.044l-12.452-2.917-6.618-10.928-6.618,10.928L6.835-705.928c-.044.044-.044.044-.087.044s-.131.043-.174.043c-.087.044-.174.044-.261.087-.044,0-.044.044-.087.044H6.182a4.122,4.122,0,0,0-1.175.74,2.058,2.058,0,0,0-.435.435,4.006,4.006,0,0,0-.566,1.045L0-708.148l15.064-3.57,1.828-.435L25.949-727l9.012,14.847,1.829.435,15.021,3.57L47.8-703.49A3.038,3.038,0,0,0,47.239-704.535Z" transform="translate(-1792.922 -1432.066)"/>
</svg>
